<?xml version="1.0" encoding="iso-8859-1"?>
<!-- Generator: Adobe Illustrator 21.0.0, SVG Export Plug-In . SVG Version: 6.00 Build 0)  -->
<svg version="1.1" xmlns="http://www.w3.org/2000/svg" xmlns:xlink="http://www.w3.org/1999/xlink" x="0px" y="0px"
	 width="595.28px" height="595.28px" viewBox="0 0 595.28 595.28" enable-background="new 0 0 595.28 595.28" xml:space="preserve">
<g id="Layer_1">
</g>
<g id="Layer_2">
	<g>
		<defs>
			<rect id="SVGID_39_" x="0" width="595.28" height="595.28"/>
		</defs>
		<clipPath id="SVGID_2_">
			<use xlink:href="#SVGID_39_"  overflow="visible"/>
		</clipPath>
		<g clip-path="url(#SVGID_2_)">
			<path fill="#BCDCE7" d="M314.69,205.206c-10.691,8.953-19.693,19.75-30.077,29.058c-12.095,10.842-25.996,19.604-37.533,31.037
				c-10.249,10.157-18.402,22.19-27.448,33.431c-16.757,20.822-36.585,38.921-55.325,57.978
				c-15.347,15.606-30.779,33.596-32.612,55.406c-0.512,6.091,0.644,13.211,5.893,16.343c6.324,3.773,14.359-0.469,19.955-5.255
				c7.932-6.782,14.674-14.844,22.397-21.864c14.923-13.564,33.098-22.894,50.404-33.246
				c45.104-26.979,85.273-61.634,121.632-99.585c9.699-10.123,19.368-20.854,24.211-34.01c5.846-15.88,2.828-37.159-13.93-45.169
				C347.292,182.177,326.021,195.717,314.69,205.206z"/>
			<path fill="#ED9191" d="M243.287,246.075c-4.764,7.401-9.17,15.337-16.133,20.722c-7.029,5.435-16.052,7.726-24.92,8.271
				c-2.607,0.16-5.558,0.048-7.342-1.86c-1.374-1.47-1.673-3.631-1.731-5.643c-0.624-21.352,17.457-38.572,22.608-59.303
				c5.686-22.885-4.779-48.472,4.848-69.998c8.759-19.585,31.303-29.241,43.291-47.035c6.464-9.594,10.101-21.791,19.819-28.066
				c7.69-4.965,17.469-5.008,26.61-4.538c14.594,0.751,29.126,2.387,43.647,4.021c35.185,3.961,70.369,7.921,105.554,11.882
				c8.276,0.932,16.682,1.896,24.364,5.11c14.518,6.074,25.028,20.045,28.517,35.39c4.874,21.433-2.87,44.044,0.867,65.705
				c4.487,26.008,25.203,50.456,17.817,75.793c-3.198,10.972-11.273,19.738-19.094,28.072
				c-14.739,15.704-29.731,31.616-48.193,42.707c-14.175,8.515-30.008,13.942-44.345,22.179
				c-15.37,8.831-28.78,20.751-44.072,29.716c-21.616,12.671-46.829,19.127-71.875,18.403c-10.494-0.303-23.196-3.719-25.716-13.91
				c-1.483-5.997,1.415-12.362,5.706-16.807c4.291-4.445,9.837-7.414,15.086-10.672c20.691-12.842,37.582-30.848,54.213-48.638
				c11.776-12.596,23.552-25.193,35.327-37.789c4.16-4.45,8.421-9.061,10.539-14.772c4.791-12.925-2.565-26.871-4.139-40.565
				c-0.942-8.196,0.203-16.691-2.193-24.585c-3.79-12.485-15.947-20.978-28.623-24.081c-14.022-3.432-30.676-2.406-44.766,0.436
				c-13.149,2.652-15.984,7.327-22.805,17.298C280.799,205.968,258.248,222.832,243.287,246.075z"/>
			<g>
				<path fill="none" stroke="#231F20" stroke-width="10.2617" stroke-miterlimit="10" d="M149.794,365.811
					c-9.742,10.748-18.788,23.162-20.55,37.56c-1.762,14.4,6.214,30.853,20.358,34.082c14.794,3.378,28.493-7.982,39.55-18.386
					c35.512-33.41,268.178-183.755,175.562-227.985c-50.448-24.092-72.8,32.323-96.341,63.288
					C235.067,298.179,186.454,325.367,149.794,365.811z"/>
				<path fill="none" stroke="#231F20" stroke-width="10.2617" stroke-miterlimit="10" d="M136.459,429.02
					c-31.922,28.672-84.435,77.936-108.225,113.644c2.418-4.298,4.836-8.597,7.254-12.895"/>
				<path fill="none" stroke="#231F20" stroke-width="10.2617" stroke-miterlimit="10" d="M209.269,260.411c1.448,0,2.896,0,4.345,0
					"/>
				<path fill="none" stroke="#231F20" stroke-width="10.2617" stroke-miterlimit="10" d="M265.748,195.189
					c-19.176-0.26-38.386,2.225-56.865,7.354"/>
				<path fill="none" stroke="#231F20" stroke-width="10.2617" stroke-miterlimit="10" d="M196.208,143.102
					c0.843-3.509,5.311-5.595,8.543-3.989"/>
				<path fill="none" stroke="#231F20" stroke-width="10.2617" stroke-miterlimit="10" d="M291.492,139.154
					c-24.602-20.3-46.645-43.699-65.443-69.467"/>
				<path fill="none" stroke="#231F20" stroke-width="10.2617" stroke-miterlimit="10" d="M346.809,147.344
					c-1.059-27.794,6.258-55.853,20.754-79.59"/>
				<path fill="none" stroke="#231F20" stroke-width="10.2617" stroke-miterlimit="10" d="M400.595,159.489
					c-6.255,0.223-2.335-10.067,3.111-13.151c28.858-16.338,57.716-32.675,86.574-49.013"/>
				<path fill="none" stroke="#231F20" stroke-width="10.2617" stroke-miterlimit="10" d="M435.048,207.31
					c38.081-5.34,77.526-0.627,113.278,13.534"/>
				<path fill="none" stroke="#231F20" stroke-width="10.2617" stroke-miterlimit="10" d="M418.01,277.019
					c32.179,7.008,42.245,49.959,70.931,66.136c2.157,1.216,5.095,2.186,6.902,0.493s-1.558-5.437-2.663-3.221"/>
				<path fill="none" stroke="#231F20" stroke-width="10.2617" stroke-miterlimit="10" d="M361.412,299.53
					c-6.756,30.519-13.512,61.038-20.268,91.557"/>
				<path fill="none" stroke="#231F20" stroke-width="10.2617" stroke-miterlimit="10" d="M291.814,364.679
					c4.345,0,8.689,0,13.034,0"/>
				<path fill="none" stroke="#231F20" stroke-width="10.2617" stroke-miterlimit="10" d="M422.15,369.023c1.448,0,2.896,0,4.345,0"
					/>
				<path fill="none" stroke="#231F20" stroke-width="10.2617" stroke-miterlimit="10" d="M522.074,269.1c0-1.448,0-2.896,0-4.345"
					/>
				<path fill="none" stroke="#231F20" stroke-width="10.2617" stroke-miterlimit="10" d="M517.521,129.661
					c2.894-1.454,5.787-2.907,8.681-4.361"/>
				<path fill="none" stroke="#231F20" stroke-width="10.2617" stroke-miterlimit="10" d="M409.116,56.218c2.896,0,5.793,0,8.689,0"
					/>
				<path fill="none" stroke="#231F20" stroke-width="10.2617" stroke-miterlimit="10" d="M265.747,69.252c1.448,0,2.896,0,4.345,0"
					/>
			</g>
		</g>
	</g>
</g>
</svg>
